<?xml version="1.0" encoding="utf-8"?>
<!-- Generator: Adobe Illustrator 23.0.6, SVG Export Plug-In . SVG Version: 6.00 Build 0)  -->
<svg version="1.1" xmlns="http://www.w3.org/2000/svg" xmlns:xlink="http://www.w3.org/1999/xlink" x="0px" y="0px"
	 viewBox="0 0 1024 768" style="enable-background:new 0 0 1024 768;" xml:space="preserve">
<style type="text/css">
	.st0{fill:#231F20;}
	.st1{fill-rule:evenodd;clip-rule:evenodd;fill:#FFFFFF;}
	.st2{fill:none;stroke:#FFFFFF;stroke-width:0.9903;stroke-miterlimit:10;}
	.st3{fill:none;stroke:#FFFFFF;stroke-width:1.0933;stroke-miterlimit:10;}
	.st4{fill:none;stroke:#FFFFFF;stroke-miterlimit:10;}
	.st5{fill:#878787;}
	.st6{fill:#FFFFFF;}
	.st7{fill:none;stroke:#CCDB0E;stroke-width:0.8286;stroke-linecap:round;stroke-linejoin:round;stroke-miterlimit:10;}
	.st8{fill:none;stroke:#CCDB0E;stroke-linecap:round;stroke-linejoin:round;stroke-miterlimit:10;}
	.st9{fill:none;stroke:#878787;stroke-width:2;stroke-miterlimit:10;}
	.st10{fill-rule:evenodd;clip-rule:evenodd;fill:none;stroke:#727272;stroke-width:2;stroke-miterlimit:10;}
	.st11{fill-rule:evenodd;clip-rule:evenodd;fill:none;stroke:#727272;stroke-width:3;stroke-linecap:round;stroke-miterlimit:10;}
	.st12{fill-rule:evenodd;clip-rule:evenodd;fill:none;stroke:#727272;stroke-width:2;stroke-linecap:round;stroke-miterlimit:10;}
	
		.st13{fill-rule:evenodd;clip-rule:evenodd;fill:none;stroke:#727272;stroke-width:2;stroke-linecap:round;stroke-linejoin:round;stroke-miterlimit:10;}
	.st14{fill:#3D393A;}
	.st15{fill:none;stroke:#CCDB0E;stroke-width:0.9507;stroke-miterlimit:10;}
	.st16{fill:none;stroke:#828282;stroke-width:0.9507;stroke-miterlimit:10;}
	.st17{fill:#828282;}
	.st18{fill:#CCDB0E;}
	.st19{fill-rule:evenodd;clip-rule:evenodd;fill:#2D2D2D;}
	.st20{fill-rule:evenodd;clip-rule:evenodd;fill:#444444;}
	.st21{fill-rule:evenodd;clip-rule:evenodd;fill:#727272;}
	.st22{fill-rule:evenodd;clip-rule:evenodd;fill:none;stroke:#898989;stroke-width:0.8519;stroke-miterlimit:10;}
	
		.st23{fill-rule:evenodd;clip-rule:evenodd;fill:none;stroke:#727272;stroke-width:1.3238;stroke-linecap:round;stroke-linejoin:round;stroke-miterlimit:10;}
	.st24{fill:#727272;}
	.st25{fill-rule:evenodd;clip-rule:evenodd;fill:none;stroke:#727272;stroke-width:1.3238;stroke-miterlimit:10;}
	.st26{fill:none;stroke:#727272;stroke-linecap:round;stroke-linejoin:round;stroke-miterlimit:10;}
	.st27{fill:none;stroke:#FFFFFF;stroke-width:5;stroke-linecap:round;stroke-linejoin:round;stroke-miterlimit:10;}
	.st28{fill:none;stroke:#FFFFFF;stroke-width:1.037;stroke-miterlimit:10;}
	.st29{fill:none;stroke:#CCDB0E;stroke-width:4;stroke-linecap:round;stroke-miterlimit:10;}
	.st30{fill:none;}
	.st31{font-family:'UniversLTStd-Light';}
	.st32{font-size:14px;}
	.st33{fill-rule:evenodd;clip-rule:evenodd;fill:none;}
	.st34{display:none;}
	.st35{display:inline;}
	.st36{fill-rule:evenodd;clip-rule:evenodd;fill:none;stroke:#FFFFFF;stroke-width:17.1972;stroke-miterlimit:10;}
	.st37{fill-rule:evenodd;clip-rule:evenodd;fill:none;stroke:#898989;stroke-width:2.162;stroke-miterlimit:10;}
	.st38{font-family:'UniversLTStd-Black';}
	.st39{font-size:45.6684px;}
	.st40{font-family:'UniversLTStd';}
	.st41{font-size:30.4456px;}
</style>
<g id="Layer_1">
	<rect class="st0" width="1024.5" height="768"/>
	<g id="small-mini-logo">
		<path class="st1" d="M513.4,118.6c-11.5,0-20.9-9.3-20.9-20.9s9.3-20.9,20.9-20.9c11.5,0,20.9,9.3,20.9,20.9
			S524.9,118.6,513.4,118.6 M569,84.3h-35.1c-4.3-7.2-11.9-12-20.6-12c-8.7,0-16.3,4.8-20.6,12h-34.9l3.5,3.8h29.4
			c-0.5,1.2-0.9,2.5-1.2,3.8h-24.3l3.8,3.8h20c0,0.6-0.1,1.2-0.1,1.9c0,0.6,0,1.3,0.1,1.9h-16.2l3.8,3.8h13c0.3,1.3,0.7,2.6,1.2,3.8
			h-10.3l3.5,3.8h8.7c4.3,7.2,11.9,12,20.6,12c8.7,0,16.2-4.8,20.6-12h8.9l3.5-3.8h-10.5c0.5-1.2,0.9-2.5,1.2-3.8h13.2l3.8-3.8
			h-16.4c0.1-0.6,0.1-1.3,0.1-1.9c0-0.6,0-1.2-0.1-1.9h20.1l3.8-3.8h-24.5c-0.3-1.3-0.7-2.6-1.2-3.8h29.6L569,84.3L569,84.3z
			 M522.9,100.1l0-8.3h2.2v11.3l-2.5,0.1l-4.2-8v7.9h-2.3V91.8h2.5L522.9,100.1z M502.4,100.6l2.7-8.8h3.5v11.3h-2.3v-8.4l-2.4,8.4
			h-2.8l-2.4-8.4v8.4h-2.3V91.8h3.1L502.4,100.6z M513.1,91.8v11.3h-2.3V91.8H513.1z M529.7,91.8v11.3h-2.3V91.8H529.7z"/>
	</g>
	<g id="dashboard-outline">
		<path id="left-outline" class="st2" d="M280.3,681.5H159.1c-44.3,0-80.6-36.3-80.6-80.6V166.1c0-44.3,36.3-80.6,80.6-80.6h276.6"
			/>
		<path id="right-outline" class="st2" d="M589.3,85.5h273.6c44.3,0,80.6,36.3,80.6,80.6v434.8c0,44.3-36.3,80.6-80.6,80.6H742.8"/>
		<path id="top-outline" class="st3" d="M435.6,85.5c6.4,30.1,38.3,53,76.9,53s70.5-22.9,76.8-53"/>
		<path id="bottom-outline" class="st4" d="M279.9,682c0,0,50.1-82,232.1-82s231.1,82,231.1,82"/>
	</g>
	<g id="PRNDL-gray">
		<path class="st5" d="M444.2,128.9l6.4,4.5c1.1,0.8,2.5,1.8,3.2,3.2c0.7,1.5,0.7,3.1-0.4,4.7c-1.5,2.2-3.8,2-4.5,1.9
			c-1.4-0.2-3.1-1.4-3.9-1.9l-2.5-1.7l-3.2,4.5l-3.8-2.7L444.2,128.9z M444.1,137.2l1.7,1.2c0.9,0.7,2.5,1.7,3.6,0.1
			c1.1-1.5-0.2-2.6-1.3-3.3l-1.7-1.2L444.1,137.2z"/>
		<path class="st5" d="M472.7,145.3l7.5,2.3c2.9,0.9,4,1.4,4.7,2.6c0.4,0.6,0.7,1.6,0.3,3.2c-0.5,1.6-1.4,2.1-2.3,2.2
			c-1.2,0.3-2.2,0.1-2.7,0l0,0.1c3.1,1,2.9,2.3,2.6,4.7c-0.1,1-0.4,2.7-0.3,3.8l-4.9-1.5c0-1,0.2-2.1,0.5-3.4
			c0.3-1.8,0.5-2.5-1.6-3.1l-1.9-0.6l-1.7,5.7l-4.5-1.4L472.7,145.3z M475.4,152.9l1.7,0.5c1,0.3,1.5,0.4,1.9,0.4
			c1.1,0,1.6-0.8,1.7-1.3c0.5-1.8-1.2-2.3-2.5-2.7l-1.7-0.5L475.4,152.9z"/>
		<path class="st5" d="M503.5,151.8l6.5,0l5.7,11.3l0-11.3l4.1,0l-0.1,15.2l-6.3,0l-5.8-11.8l0,11.8l-4.1,0L503.5,151.8z"/>
		<path class="st5" d="M537.5,149.2l6.9-2.1c1.9-0.6,4.5-1.2,6.5-0.7c2.8,0.7,4.2,2.9,4.9,5.1c1,3.2,0.5,5.9-2.4,8.1
			c-1.5,1.1-3.5,1.7-4.6,2l-6.9,2.1L537.5,149.2z M545.6,159.5l1.9-0.6c3-0.9,4.5-2.7,3.5-6c-1.3-4.4-5-3.3-6.4-2.9l-1.8,0.5
			L545.6,159.5z"/>
		<path class="st5" d="M568.8,136.6l3.9-2.7l6.9,10.1l6.3-4.3l1.7,2.5l-10.2,7L568.8,136.6z"/>
	</g>
	<g id="PRNDL-park">
		<path class="st6" d="M445,121.5l9,6.5c1.5,1.1,3.5,2.5,4.5,4.6c1,2.1,1,4.5-0.7,6.8c-2.2,3.1-5.4,2.8-6.4,2.7
			c-2.1-0.3-4.4-2.1-5.5-2.8l-3.6-2.5l-4.6,6.3l-5.5-3.9L445,121.5z M444.8,133.4l2.4,1.7c1.3,1,3.5,2.5,5.2,0.2
			c1.5-2.1-0.3-3.7-1.9-4.8l-2.4-1.7L444.8,133.4z"/>
		<path class="st5" d="M475.8,146.5l7.6,2c2.9,0.8,4,1.3,4.8,2.4c0.4,0.6,0.8,1.6,0.4,3.1c-0.4,1.6-1.3,2.1-2.2,2.3
			c-1.2,0.3-2.2,0.1-2.7,0.1l0,0.1c3.2,0.9,3,2.2,2.8,4.6c-0.1,1-0.3,2.7-0.2,3.8l-4.9-1.3c0-1,0.2-2.1,0.3-3.5
			c0.3-1.8,0.4-2.5-1.7-3l-1.9-0.5l-1.5,5.7l-4.6-1.2L475.8,146.5z M478.6,154.1l1.7,0.5c1,0.3,1.5,0.4,1.9,0.4
			c1.1,0,1.5-0.9,1.6-1.3c0.5-1.8-1.3-2.3-2.6-2.6l-1.7-0.5L478.6,154.1z"/>
		<path class="st5" d="M507.1,152.2l6.5-0.2l6.1,11.1l-0.5-11.3l4.1-0.1l0.6,15.2l-6.3,0.2l-6.3-11.6l0.5,11.8l-4.1,0.1L507.1,152.2
			z"/>
		<path class="st5" d="M541.5,148.4l6.8-2.3c1.9-0.7,4.5-1.4,6.5-0.9c2.9,0.6,4.3,2.8,5.1,4.9c1.1,3.2,0.8,5.9-2.1,8.2
			c-1.4,1.1-3.4,1.8-4.5,2.2l-6.8,2.4L541.5,148.4z M550.1,158.4l1.9-0.7c2.9-1,4.4-2.8,3.3-6.2c-1.5-4.3-5.1-3.1-6.5-2.6l-1.8,0.6
			L550.1,158.4z"/>
		<path class="st5" d="M572.7,134.3l3.8-2.9l7.3,9.7l6.1-4.6l1.8,2.4l-9.9,7.4L572.7,134.3z"/>
	</g>
	<g id="PRNDL-park_1_">
		<g>
			<path class="st5" d="M440.9,126.3l6.2,4.8c1,0.8,2.4,1.8,3,3.3c0.7,1.5,0.6,3.2-0.6,4.7c-1.6,2.1-3.8,1.9-4.6,1.7
				c-1.4-0.3-3.1-1.5-3.8-2.1l-2.4-1.8l-3.3,4.3l-3.7-2.9L440.9,126.3z M440.5,134.5l1.7,1.3c0.9,0.7,2.4,1.8,3.6,0.2
				c1.1-1.5-0.1-2.6-1.2-3.4l-1.6-1.3L440.5,134.5z"/>
		</g>
		<g>
			<path class="st5" d="M468.8,143.8l7.4,2.6c2.9,1,3.9,1.5,4.6,2.7c0.3,0.6,0.7,1.6,0.1,3.2c-0.5,1.6-1.5,2-2.4,2.2
				c-1.2,0.2-2.2,0-2.7-0.1l0,0.1c3.1,1.2,2.8,2.4,2.4,4.8c-0.2,1-0.5,2.7-0.5,3.8l-4.8-1.7c0-1,0.3-2.1,0.6-3.4
				c0.4-1.8,0.6-2.5-1.4-3.1l-1.9-0.6l-1.9,5.6l-4.5-1.5L468.8,143.8z M471.1,151.5l1.7,0.6c1,0.3,1.5,0.5,1.9,0.5
				c1.1,0.1,1.6-0.8,1.7-1.2c0.6-1.8-1.1-2.4-2.4-2.8l-1.7-0.6L471.1,151.5z"/>
		</g>
		<g>
			<path class="st5" d="M499.2,151.6l6.5,0.2l5.4,11.4l0.3-11.3l4.1,0.1l-0.4,15.2l-6.3-0.2l-5.5-11.9l-0.3,11.8l-4.1-0.1
				L499.2,151.6z"/>
		</g>
		<g>
			<path class="st6" d="M532.1,144l9.8-3c2.8-0.8,6.5-1.7,9.3-1c4.1,1.1,6,4.2,7,7.3c1.4,4.6,0.8,8.5-3.4,11.5
				c-2.1,1.5-5,2.4-6.6,2.9l-9.9,3L532.1,144z M543.8,158.8l2.8-0.8c4.3-1.3,6.5-3.8,5-8.6c-1.9-6.3-7.2-4.7-9.1-4.1l-2.5,0.7
				L543.8,158.8z"/>
		</g>
		<g>
			<path class="st5" d="M572,134.5l3.8-2.8l7.3,9.8l6.1-4.5l1.8,2.4l-9.9,7.4L572,134.5z"/>
		</g>
	</g>
</g>
<g id="bottom-icons_1_">
	<circle class="st7" cx="508.5" cy="645.5" r="29"/>
	<g id="bottom-icons">
		<g id="mini-car-icon">
			<path class="st8" d="M494.5,637.5c0,0,0-9,8-9s14,0,14,0c5,0,7,10,7,10s3-4,5-3s0,4-3,4c0,0-1,0,1,1s4,6,2,14c0,1,1,5-1,5
				s-7,1-6-3h-26c0,0,1,3,0,3s-5,0-5,0s-2,0-1-4c0,0-3-8,0-14c0,0,2-3,3-3c0,0-3-1-3-2S492.5,633.5,494.5,637.5z"/>
			<circle class="st8" cx="496.5" cy="644.5" r="3"/>
			<circle class="st8" cx="522.5" cy="644.5" r="3"/>
			<path class="st8" d="M514.5,653.5h-11c-1.6,0-3-1.3-3-3l0,0c0-1.7,1.4-3,3-3h11c1.7,0,3,1.3,3,3l0,0
				C517.5,652.2,516.2,653.5,514.5,653.5z"/>
			<path class="st8" d="M515,639.5h-12c-2.5,0-4.5-2-4.5-4.5l0,0c0-2.5,2-4.5,4.5-4.5h12c2.5,0,4.5,2,4.5,4.5l0,0
				C519.5,637.5,517.5,639.5,515,639.5z"/>
			<path class="st8" d="M513,643.5h-8c-0.3,0-0.5-0.2-0.5-0.5l0,0c0-0.3,0.2-0.5,0.5-0.5h8c0.3,0,0.5,0.2,0.5,0.5l0,0
				C513.5,643.3,513.3,643.5,513,643.5z"/>
			<circle class="st8" cx="496" cy="651" r="1"/>
			<circle class="st8" cx="523" cy="651" r="1"/>
		</g>
		<path id="phone-icon" class="st9" d="M406.5,649.5c0,0,3-3,3-5s-2-11-7-9s-5,4-5,7s0,25,29,31c3,0,7-6,6-8s-8-6-10-5s-4,3-4,3
			S406.5,656.5,406.5,649.5z"/>
		<g id="spotify-icon">
			<circle class="st10" cx="605.5" cy="654.5" r="19"/>
			<path class="st11" d="M594,648c0,0,13.5-7.5,24,3"/>
			<path class="st12" d="M595.5,654.5c0,0,9.5-6.5,20,2"/>
			<path class="st12" d="M595.5,660.5c0,0,10-5,18,2"/>
		</g>
		<g id="settings-icon">
			<g>
				<g>
					<path class="st5" d="M366.2,677.8l-2.5-0.4c-0.3-0.8-0.6-1.6-1-2.4l1.4-2c0.6-0.9,0.5-2-0.2-2.8l-2.1-2.1
						c-0.3-0.3-0.6-0.5-1-0.6c-0.7-0.2-1.3-0.1-1.9,0.3l-2,1.4c-0.8-0.4-1.6-0.8-2.5-1l-0.4-2.4c-0.2-1-1.1-1.8-2.1-1.8h-3.1
						c-1.1,0-2,0.8-2.1,1.8l-0.4,2.5c-0.8,0.3-1.6,0.6-2.4,1l-2-1.4c-0.4-0.3-0.8-0.4-1.3-0.4c-0.6,0-1.1,0.2-1.5,0.6l-2.2,2.2
						c-0.7,0.7-0.8,1.9-0.2,2.8l1.5,2.1c-0.4,0.8-0.7,1.6-1,2.4l-2.4,0.4c-1,0.2-1.8,1.1-1.8,2.1v3.1c0,1.1,0.8,2,1.8,2.1l2.5,0.4
						c0.3,0.8,0.6,1.6,1,2.4l-1.4,2c-0.6,0.9-0.5,2,0.2,2.8l2.1,2.1c0.3,0.3,0.6,0.5,1,0.6c0.7,0.2,1.3,0.1,1.9-0.3l2.1-1.5
						c0.7,0.4,1.5,0.7,2.3,1l0.4,2.5c0.2,1,1.1,1.8,2.1,1.8h3.1c1.1,0,2-0.8,2.1-1.8l0.4-2.5c0.8-0.3,1.6-0.6,2.4-1l2,1.4
						c0.4,0.3,0.8,0.4,1.3,0.4l0,0c0.6,0,1.1-0.2,1.5-0.6l2.2-2.2c0.7-0.7,0.8-1.9,0.2-2.8l-1.4-2c0.4-0.8,0.7-1.6,1-2.4l2.5-0.4
						c1-0.2,1.8-1.1,1.8-2.1V680C368,678.9,367.3,678,366.2,677.8z M366.4,683.4c0,0.1-0.1,0.2-0.2,0.2l-3.1,0.5
						c-0.4,0.1-0.7,0.4-0.8,0.7c-0.3,1.1-0.7,2.1-1.3,3c-0.2,0.3-0.2,0.8,0,1.1l1.8,2.5c0.1,0.1,0,0.2,0,0.2l-2.2,2.2
						c-0.1,0.1-0.1,0.1-0.1,0.1c0,0-0.1,0-0.1,0l-2.5-1.8c-0.3-0.2-0.7-0.2-1.1,0c-1,0.6-2,1-3.1,1.3c-0.4,0.1-0.7,0.4-0.7,0.8
						l-0.5,3.1c0,0.1-0.1,0.2-0.2,0.2h-3.1c-0.1,0-0.2-0.1-0.2-0.2l-0.5-3.1c-0.1-0.4-0.4-0.7-0.7-0.8c-1-0.3-2.1-0.7-3-1.2
						c-0.2-0.1-0.3-0.1-0.5-0.1c-0.2,0-0.4,0.1-0.6,0.2l-2.6,1.8c0,0-0.1,0-0.1,0c0,0-0.1,0-0.1-0.1l-2.2-2.2
						c-0.1-0.1-0.1-0.2,0-0.2l1.8-2.5c0.2-0.3,0.2-0.7,0-1.1c-0.6-1-1-2-1.3-3.1c-0.1-0.4-0.4-0.7-0.8-0.7l-3.1-0.5
						c-0.1,0-0.2-0.1-0.2-0.2v-3.1c0-0.1,0.1-0.2,0.2-0.2l3.1-0.5c0.4-0.1,0.7-0.4,0.8-0.7c0.3-1.1,0.7-2.1,1.2-3.1
						c0.2-0.3,0.2-0.8-0.1-1.1l-1.8-2.6c-0.1-0.1,0-0.2,0-0.2l2.2-2.2c0.1-0.1,0.1-0.1,0.1-0.1c0,0,0.1,0,0.1,0l2.5,1.8
						c0.3,0.2,0.7,0.2,1.1,0c1-0.6,2-1,3.1-1.3c0.4-0.1,0.7-0.4,0.7-0.8l0.5-3.1c0-0.1,0.1-0.2,0.2-0.2h3.1c0.1,0,0.2,0.1,0.2,0.2
						l0.5,3.1c0.1,0.4,0.4,0.7,0.7,0.8c1.1,0.3,2.1,0.7,3.1,1.3c0.3,0.2,0.8,0.2,1.1,0l2.5-1.8c0,0,0.1,0,0.1,0c0,0,0.1,0,0.1,0.1
						l2.2,2.2c0.1,0.1,0.1,0.2,0,0.2l-1.8,2.5c-0.2,0.3-0.2,0.7,0,1.1c0.6,1,1,2,1.3,3.1c0.1,0.4,0.4,0.7,0.8,0.7l3.1,0.5
						c0.1,0,0.2,0.1,0.2,0.2L366.4,683.4L366.4,683.4z"/>
					<path class="st5" d="M350.8,674.2c-4.2,0-7.5,3.4-7.5,7.5s3.4,7.5,7.5,7.5s7.5-3.4,7.5-7.5S355,674.2,350.8,674.2z
						 M350.8,687.3c-3.1,0-5.6-2.5-5.6-5.6c0-3.1,2.5-5.6,5.6-5.6c3.1,0,5.6,2.5,5.6,5.6C356.4,684.8,353.9,687.3,350.8,687.3z"/>
				</g>
			</g>
		</g>
		<g id="map-icon">
			<path class="st13" d="M677,699c-7.9-7.1-18-34.6,1.9-33.5C698.7,666.6,684.1,693.2,677,699z"/>
			<circle class="st13" cx="678" cy="677" r="4"/>
		</g>
	</g>
</g>
<g id="music-player-container">
	<g id="music-player_1_">
		<path id="music-bg" class="st14" d="M864.6,393H743.4c-6.6,0-12-5.4-12-12V204.5c0-6.6,5.4-12,12-12h121.2c6.6,0,12,5.4,12,12V381
			C876.6,387.6,871.2,393,864.6,393z"/>
		
			<image style="overflow:visible;" width="316" height="316" xlink:href="GorillazAlbum.jpg"  transform="matrix(0.2532 0 0 0.2532 764 242)">
		</image>
		<rect id="album-white" x="764" y="242" class="st6" width="80" height="80"/>
		<g>
			<path class="st6" d="M780.8,207.2c0-0.3,0-0.8-0.4-1.3c-0.5-0.9-1.6-1-2.2-1c-3.2,0-3.8,3-3.8,5c0,0.9,0.1,2.5,1.1,3.5
				c0.6,0.7,1.5,1.1,3.1,1.1c1.4,0,1.8-0.2,2.1-0.3v-2.7h-2.5v-2.2h5.3v6.5c-0.8,0.3-2.1,0.7-4.8,0.7c-3,0-4.5-0.7-5.5-1.7
				c-1.5-1.4-1.7-3.5-1.7-4.9c0-4.6,2.9-7.1,6.8-7.1c1.7,0,3.4,0.5,4.4,1.6c0.9,1,0.9,2,0.9,2.7H780.8z"/>
			<path class="st6" d="M790.3,206.9c3.3,0,4.7,2.2,4.7,4.8c0,2.6-1.5,4.9-4.8,4.9c-2.6,0-4.6-1.6-4.6-4.8
				C785.6,209.5,786.7,206.9,790.3,206.9z M790.3,214.6c1.2,0,2-0.7,2-3.1c0-1.2-0.2-2.9-2-2.9c-1.9,0-2,2.3-2,3.1
				C788.3,213.8,789,214.6,790.3,214.6z"/>
			<path class="st6" d="M797,209.3c0-0.4-0.1-1.7-0.1-2.3h2.5l0.1,1.7c0.3-0.8,0.9-1.9,3.1-1.8v2.4c-2.7-0.3-2.9,1.1-2.9,2.3v4.5
				H797V209.3z"/>
			<path class="st6" d="M803.2,203.2h2.8v2.3h-2.8V203.2z M803.3,207.1h2.7v9.1h-2.7V207.1z"/>
			<path class="st6" d="M808.3,203.2h2.7v13h-2.7V203.2z"/>
			<path class="st6" d="M813.3,203.2h2.7v13h-2.7V203.2z"/>
			<path class="st6" d="M823.8,216.2c-0.1-0.6-0.1-1-0.1-1.2c-1,1.5-2.2,1.5-2.7,1.5c-1.3,0-1.9-0.4-2.3-0.7c-0.5-0.5-0.8-1.3-0.8-2
				s0.3-2.1,1.9-2.8c1.1-0.5,2.7-0.5,3.6-0.5c0-0.6,0-0.9-0.1-1.2c-0.2-0.7-0.9-0.8-1.2-0.8c-0.4,0-0.8,0.2-1,0.5
				c-0.2,0.3-0.2,0.6-0.2,0.8h-2.6c0-0.5,0.1-1.5,1-2.1c0.8-0.6,1.9-0.7,2.8-0.7c0.8,0,2.3,0.1,3.2,1.2c0.6,0.7,0.6,1.8,0.6,2.2
				l0,3.7c0,0.8,0.1,1.5,0.2,2.3H823.8z M820.5,213.4c0,0.6,0.4,1.3,1.3,1.3c0.5,0,0.9-0.2,1.1-0.5c0.5-0.6,0.5-1.3,0.5-2.3
				C821.7,211.7,820.5,212.3,820.5,213.4z"/>
			<path class="st6" d="M827.7,213.8l4.6-5h-4.5v-1.8h7.5v2.3l-4.6,5h4.8v1.8h-7.8V213.8z"/>
			<path class="st6" d="M781.7,221.5v3.7h4.1v-3.7h1.2v8.7h-1.2v-3.9h-4.1v3.9h-1.2v-8.7H781.7z"/>
			<path class="st6" d="M790.2,224.2v3.9c0,0.6,0.1,1.3,1.3,1.3c0.6,0,1.1-0.2,1.4-0.7c0.3-0.4,0.3-0.8,0.3-1.1v-3.4h1.2v4.9
				c0,0.1,0,0.8,0,1.1h-1.2l0-1c-0.2,0.4-0.6,1.1-1.9,1.1c-1.5,0-2.2-0.9-2.2-2v-4H790.2z"/>
			<path class="st6" d="M796.5,225l0-0.8h1.1v0.9c0.6-0.9,1.4-1,1.9-1c1.3,0,1.8,0.7,2,1.1c0.2-0.3,0.7-1.1,2-1.1
				c0.9,0,2.2,0.4,2.2,2.1v4h-1.1v-3.9c0-0.5-0.1-0.8-0.2-0.9c-0.2-0.3-0.6-0.5-1.2-0.5c-0.7,0-1.1,0.4-1.3,0.6
				c-0.3,0.4-0.3,1-0.3,1.3v3.4h-1.1v-4c0-0.7-0.4-1.3-1.3-1.3c-0.8,0-1.2,0.5-1.3,0.7c-0.3,0.3-0.3,0.8-0.3,1.2v3.4h-1.1V225z"/>
			<path class="st6" d="M807.8,221.5h1.4v1.2h-1.4V221.5z M807.9,224.2h1.1v6h-1.1V224.2z"/>
			<path class="st6" d="M811.2,221.5h1.1v8.6h-1.1V221.5z"/>
			<path class="st6" d="M814.4,221.5h1.4v1.2h-1.4V221.5z M814.6,224.2h1.1v6h-1.1V224.2z"/>
			<path class="st6" d="M817,224.1h1.1v-1.3l1.1-0.4v1.6h1.3v0.8h-1.3v3.6c0,0.3,0,0.8,0.8,0.8c0.2,0,0.4,0,0.5-0.1v0.9
				c-0.2,0-0.5,0.1-0.9,0.1c-1,0-1.5-0.3-1.5-1.3v-4H817V224.1z"/>
			<path class="st6" d="M824.6,230.2l-0.9,2.2h-1.2l0.9-2.3l-2.5-6h1.3l1.9,4.7l1.9-4.7h1.2L824.6,230.2z"/>
		</g>
		<g id="music-player">
			<path id="music-player-outline" class="st15" d="M854.5,381.5h-101c-6.6,0-12-5.4-12-12v-23c0-6.6,5.4-12,12-12h101
				c6.6,0,12,5.4,12,12v23C866.5,376.1,861.1,381.5,854.5,381.5z"/>
			<g id="music-player-time">
				<line class="st16" x1="795" y1="347.5" x2="854" y2="347.5"/>
				<line class="st15" x1="755" y1="347.5" x2="788.2" y2="347.5"/>
				<circle class="st17" cx="854" cy="347" r="2"/>
				<circle class="st15" cx="791.5" cy="347.5" r="3"/>
				<circle class="st18" cx="754" cy="347" r="2"/>
			</g>
			<g id="music-player-buttons">
				<path class="st18" d="M798,360.5v9.9c0,0.7,0.8,1.2,1.4,0.8l9.9-5.5c0.7-0.4,0.7-1.4-0.1-1.7l-9.9-4.4
					C798.7,359.3,798,359.8,798,360.5z"/>
				<g>
					<path class="st18" d="M768.4,370.6l-5.3-4.6c-0.3-0.3-0.3-0.7,0-1l5.3-4.6c0.4-0.4,1.1-0.1,1.1,0.5v9.1
						C769.5,370.6,768.8,370.9,768.4,370.6z"/>
					<line class="st8" x1="762.5" y1="359" x2="762.5" y2="372"/>
				</g>
				<g>
					<path class="st18" d="M839.5,369.8l4.5-3.9c0.3-0.2,0.3-0.6,0-0.8l-5.6-4.8c-0.4-0.3-0.9-0.1-0.9,0.4v8.2
						C837.5,369.9,838.7,370.5,839.5,369.8z"/>
					<line class="st8" x1="844.5" y1="359" x2="844.5" y2="372"/>
				</g>
			</g>
		</g>
	</g>
</g>
<g id="gas-tank-container">
	<g id="gas-tank">
		<g id="gas-levels">
			<path id="gas-level-1" class="st19" d="M466.8,554.5h85.5c0,0-9.2,27.5-42.2,28.5S466.8,554.5,466.8,554.5z"/>
			<path id="gas-level-2" class="st20" d="M463.5,530.9h92c0,0,1.5,15.7-3.5,24.1h-85C467,555,462,548.6,463.5,530.9z"/>
			<path id="gas-level-3" class="st21" d="M470.9,512.5h77.2c0,0,7.9,12.5,6.9,18.5h-91C464,531,467.8,515,470.9,512.5z"/>
		</g>
		<circle class="st22" cx="509.5" cy="537.5" r="46"/>
		<g id="small-mileage">
			<path class="st6" d="M483.6,533.9c2.8-2.1,5.2-3.9,6.1-5.2c0.2-0.4,0.5-0.8,0.5-1.4c0-1.1-0.9-1.3-1.3-1.3
				c-1.4,0-1.4,1.1-1.5,1.5h-3.5c0-0.4,0-1.4,0.9-2.4c1.1-1.3,3.2-1.4,4.3-1.4c1.9,0,3.3,0.5,4.1,1.5c0.5,0.6,0.7,1.3,0.7,2
				c0,2.6-2.4,4.4-5.9,6.8h5.9v2.5h-10.2V533.9z"/>
			<path class="st6" d="M502.5,527.1c-0.1-0.6-0.3-0.9-0.6-1.1c-0.3-0.2-0.6-0.2-0.8-0.2c-1,0-1.5,0.7-1.8,1.4
				c-0.3,0.8-0.3,1.8-0.3,2.4c0.3-0.5,1.1-1.6,3.2-1.6c2.5,0,4.1,1.6,4.1,4.1c0,3.5-2.9,4.6-5.1,4.6c-1.5,0-3.2-0.4-4.3-2
				c-0.7-1.1-1.2-2.5-1.2-4.5c0-3.3,1.3-6.6,5.6-6.6c1.7,0,4.4,0.5,4.5,3.4H502.5z M501.2,530.2c-1.3,0-2,0.9-2,2.2
				c0,1.6,1,2.1,1.9,2.1c1.3,0,2-0.8,2-2.1C503.1,531.9,503,530.2,501.2,530.2z"/>
			<path class="st6" d="M512,527.2c-1,0.8-2.4,1.4-3,1.5V526c1.4-0.5,2.3-0.8,3.6-2h2.9v12.5H512V527.2z"/>
			<path class="st6" d="M520.1,529.5c0-0.2-0.1-1.8-0.1-2.1h3.3l0,1.5c0.6-1.2,1.7-1.7,3.1-1.7c0.5,0,2.2,0.1,2.8,1.7
				c0.8-1.4,2.2-1.7,3.2-1.7c1.7,0,2.5,0.9,2.8,1.4c0.5,0.8,0.5,1.9,0.5,2.9v5h-3.4v-5.1c0-0.9,0-2-1.4-2c-0.5,0-1,0.2-1.3,0.8
				c-0.1,0.2-0.2,0.5-0.2,1.3v5.1h-3.4v-5.1c0-0.8,0-2-1.4-2c-1.2,0-1.4,1-1.4,2v5.1h-3.4V529.5z"/>
			<path class="st6" d="M503.9,541.9h1.1v8.6h-1.1V541.9z"/>
			<path class="st6" d="M507.9,547.7c0,1.2,0.5,2.2,1.7,2.2c0.7,0,1.3-0.4,1.4-1.2h1.1c0,0.3-0.1,0.8-0.5,1.3
				c-0.3,0.3-0.9,0.8-2.1,0.8c-1.9,0-2.8-1.2-2.8-3.1c0-1.2,0.2-2.2,1.2-2.8c0.6-0.4,1.3-0.4,1.6-0.4c2.7,0,2.6,2.4,2.6,3.4H507.9z
				 M511.1,546.9c0-0.6-0.1-1.8-1.5-1.8c-0.7,0-1.6,0.4-1.6,1.8H511.1z"/>
			<path class="st6" d="M516.9,542.7c-0.2,0-0.4,0-0.7,0c-0.9,0-0.9,0.5-0.9,0.9v0.9h1.4v0.8h-1.4v5.2h-1.1v-5.2H513v-0.8h1.2v-0.7
				c0-0.8,0-1.1,0.3-1.4c0.3-0.4,0.7-0.7,1.5-0.7c0.3,0,0.7,0,0.9,0.1V542.7z"/>
			<path class="st6" d="M516.7,544.5h1.1v-1.3l1.1-0.4v1.6h1.3v0.8h-1.3v3.6c0,0.3,0,0.8,0.8,0.8c0.2,0,0.4,0,0.5-0.1v0.9
				c-0.2,0-0.5,0.1-0.9,0.1c-1,0-1.5-0.3-1.5-1.3v-4h-1.1V544.5z"/>
		</g>
	</g>
</g>
<g id="engine-icons-container">
	<g id="engine-icons">
		<g id="alarm-icon">
			<circle class="st23" cx="815.8" cy="589.9" r="11.9"/>
			<g>
				<path class="st24" d="M817.6,584.7l-0.5,7h-2l-0.5-7H817.6z M814.9,592.6h2.4v2.1h-2.4V592.6z"/>
			</g>
			<path class="st25" d="M803.6,576.3c0,0-13.2,13.2-0.7,25.8"/>
			<path class="st25" d="M828,576.3c0,0,13.2,13.2,0.7,25.8"/>
		</g>
		<g id="oil-icon">
			<polyline class="st26" points="143.6,586.8 143.6,606.8 122.5,606.8 122.5,578.3 129.7,578.3 			"/>
			<rect x="125.8" y="588.9" class="st26" width="14.6" height="13.2"/>
			<path class="st26" d="M129.7,578.3c1.7,1.8,6.8,6.7,14,8.5"/>
			<path class="st26" d="M129.7,578.3c0,0,5.3-2.6,8.6-2c3.3,0.7,5.3,4,5.3,9.9"/>
			<path class="st26" d="M123.1,577.6c0,0,0-2.6,0.7-2.6s4,0,4,0s0.7,0,0.7,2.6"/>
			<path class="st26" d="M133,591.5c0,0-2,4-2.6,4.6c-0.7,0.7,0,4,2.6,4s3.3-2.6,2.6-4C135,594.9,133,591.5,133,591.5z"/>
		</g>
		<g id="wipers-icon">
			<path class="st26" d="M167.5,588.2l11.3,14.6c0,0,7.9-6.6,18.5,0l11.9-15.2C209.2,587.6,186.7,574.3,167.5,588.2z"/>
			<line class="st26" x1="172.2" y1="581.6" x2="186.1" y2="604.1"/>
			<circle class="st26" cx="187.7" cy="606.4" r="2.6"/>
		</g>
		<g id="wipers-clean">
			<path class="st26" d="M229.8,588.9l11.3,14.6c0,0,7.9-6.6,18.5,0l11.9-15.2C271.5,588.2,249,575,229.8,588.9z"/>
			<circle class="st24" cx="250.7" cy="591.9" r="1.7"/>
			<circle class="st24" cx="250.7" cy="587.9" r="1.7"/>
			<circle class="st24" cx="250.7" cy="583.3" r="1.7"/>
			<circle class="st24" cx="247.4" cy="579.3" r="1.7"/>
			<circle class="st24" cx="238.8" cy="579.3" r="1.7"/>
			<circle class="st24" cx="243.4" cy="577.3" r="1.7"/>
			<circle class="st24" cx="254" cy="579.3" r="1.7"/>
			<circle class="st24" cx="258.6" cy="577.3" r="1.7"/>
			<circle class="st24" cx="263.3" cy="579.3" r="1.7"/>
		</g>
	</g>
</g>
<g id="directions-panel-container">
	<g id="directions-panel">
		<path id="directions-bg" class="st14" d="M277.6,321.5H156.4c-6.6,0-12-5.4-12-12v-105c0-6.6,5.4-12,12-12h121.2
			c6.6,0,12,5.4,12,12v105C289.6,316.1,284.2,321.5,277.6,321.5z"/>
		<g id="turn-left">
			<path class="st6" d="M181.9,207.6h-2.8v-0.7h6.3v0.7h-2.7l0,7.9h-0.8L181.9,207.6z"/>
			<path class="st6" d="M189.2,209.5h0.7v4.7c0,0.5,0,0.9,0.1,1.4h-0.7l0-0.9l0,0c-0.4,0.7-1.1,1.1-1.9,1.1c-2,0-2.1-1.7-2.1-2.4
				v-3.8h0.7v3.9c0,1,0.6,1.7,1.6,1.7c1.2,0,1.7-1,1.7-2.1V209.5z"/>
			<path class="st6" d="M192.6,215.6h-0.7v-4.7c0-0.5,0-0.9-0.1-1.4h0.7l0,0.9h0c0.2-0.6,0.8-1,1.4-1.1c0.2,0,0.5,0,0.7,0v0.7
				c-0.1,0-0.3,0-0.4,0c-1.1,0-1.6,0.8-1.7,1.9V215.6z"/>
			<path class="st6" d="M196.6,215.6h-0.7v-4.7c0-0.5,0-0.9-0.1-1.4h0.7l0,0.9l0,0c0.4-0.7,1.1-1.1,1.9-1.1c2,0,2.1,1.7,2.1,2.4v3.8
				h-0.7v-3.9c0-1-0.6-1.7-1.6-1.7c-1.2,0-1.7,1-1.7,2.1V215.6z"/>
			<path class="st6" d="M206.1,215.6v-8.7h0.8v7.9h4.4v0.7H206.1z"/>
			<path class="st6" d="M212.7,212.7c0,1.3,0.6,2.4,2.1,2.4c0.9,0,1.6-0.6,1.7-1.4h0.8c-0.4,1.4-1.3,2.1-2.7,2.1
				c-1.8,0-2.6-1.5-2.6-3.2c0-1.6,0.9-3.2,2.7-3.2c2,0,2.7,1.5,2.7,3.4H212.7z M216.6,212.1c-0.1-1.2-0.7-2-2-2c-1.2,0-1.8,1-1.9,2
				H216.6z"/>
			<path class="st6" d="M219.5,215.6v-5.4h-1.2v-0.7h1.2v-1.3c0-1,0.4-1.5,1.5-1.5c0.2,0,0.5,0.1,0.7,0.1v0.6c-0.1,0-0.3,0-0.4,0
				c-1,0-1,0.5-1,1.4v0.8h1.4v0.7h-1.4v5.4H219.5z"/>
			<path class="st6" d="M222.9,210.2h-1.2v-0.7h1.2v-1.3l0.7-0.3v1.6h1.4v0.7h-1.4v4c0,0.6,0.3,0.9,0.8,0.9c0.2,0,0.4,0,0.6-0.1v0.6
				c-0.2,0.1-0.5,0.1-0.7,0.1c-1.5,0-1.4-1-1.4-1.8V210.2z"/>
			<path class="st6" d="M234.9,212.6c0,1.6-0.9,3.2-2.8,3.2s-2.8-1.6-2.8-3.2s0.9-3.2,2.8-3.2S234.9,211,234.9,212.6z M232.1,210
				c-1.5,0-2,1.4-2,2.5c0,1.1,0.6,2.5,2,2.5s2-1.4,2-2.5C234.1,211.4,233.5,210,232.1,210z"/>
			<path class="st6" d="M237.1,215.6h-0.7v-4.7c0-0.5,0-0.9-0.1-1.4h0.7l0,0.9l0,0c0.4-0.7,1.1-1.1,1.9-1.1c2,0,2.1,1.7,2.1,2.4v3.8
				h-0.7v-3.9c0-1-0.6-1.7-1.6-1.7c-1.2,0-1.7,1-1.7,2.1V215.6z"/>
			<path class="st6" d="M243.6,210.2h-1.2v-0.7h1.2v-1.3l0.7-0.3v1.6h1.4v0.7h-1.4v4c0,0.6,0.3,0.9,0.8,0.9c0.2,0,0.4,0,0.6-0.1v0.6
				c-0.2,0.1-0.5,0.1-0.7,0.1c-1.5,0-1.4-1-1.4-1.8V210.2z"/>
			<path class="st6" d="M252.2,212.6c0,1.6-0.9,3.2-2.8,3.2s-2.8-1.6-2.8-3.2s0.9-3.2,2.8-3.2S252.2,211,252.2,212.6z M249.4,210
				c-1.5,0-2,1.4-2,2.5c0,1.1,0.6,2.5,2,2.5s2-1.4,2-2.5C251.5,211.4,250.9,210,249.4,210z"/>
			<path class="st6" d="M189.6,220.9l1.3,6.5l1.7-6.5h2.1l1.5,6.5l1.4-6.5h1.8l-2.2,8.7h-2.1l-1.6-6.6l-1.7,6.6h-2.1l-2.1-8.7H189.6
				z"/>
			<path class="st6" d="M203.3,229.6c-0.1-0.4-0.1-0.6-0.1-0.8c-0.7,1-1.5,1-1.8,1c-0.9,0-1.3-0.3-1.5-0.5c-0.4-0.4-0.5-0.9-0.5-1.3
				c0-0.5,0.2-1.4,1.3-1.9c0.7-0.3,1.8-0.3,2.4-0.3c0-0.4,0-0.6-0.1-0.8c-0.2-0.4-0.6-0.5-0.8-0.5c-0.3,0-0.5,0.1-0.7,0.3
				c-0.1,0.2-0.1,0.4-0.1,0.5h-1.7c0-0.3,0-1,0.7-1.4c0.6-0.4,1.3-0.5,1.8-0.5c0.5,0,1.6,0.1,2.2,0.8c0.4,0.5,0.4,1.2,0.4,1.5l0,2.4
				c0,0.5,0,1,0.1,1.5H203.3z M201.1,227.7c0,0.4,0.3,0.9,0.9,0.9c0.3,0,0.6-0.2,0.8-0.3c0.3-0.4,0.3-0.9,0.3-1.5
				C201.9,226.6,201.1,227,201.1,227.7z"/>
			<path class="st6" d="M206.3,220.9h1.8v8.7h-1.8V220.9z"/>
			<path class="st6" d="M209.7,224.6c0,0,0-0.7,0-1.1h1.7l0,0.9c0.2-0.3,0.6-1.1,2-1.1c1.2,0,1.7,0.7,1.8,1.1
				c0.1,0.4,0.2,0.7,0.2,1.8v3.3h-1.8v-3.8c0-0.3,0-0.5-0.1-0.7c-0.1-0.3-0.4-0.5-0.9-0.5c-0.4,0-0.7,0.2-0.9,0.5
				c-0.1,0.2-0.2,0.5-0.2,0.9v3.5h-1.8V224.6z"/>
			<path class="st6" d="M218.7,223.5v3.6c0,0.5,0,1.3,0.9,1.3c1.1,0,1.1-0.9,1.1-1.9v-3.1h1.8v4c0,1.3,0,1.5,0,1.6
				c0,0.2,0,0.3,0,0.4H221l-0.1-0.8c-0.2,0.3-0.6,1-1.8,1c-0.8,0-1.5-0.4-1.8-0.8c-0.4-0.5-0.4-1.3-0.4-1.6v-3.8H218.7z"/>
			<path class="st6" d="M227.9,229.5c-0.6,0.2-1.1,0.2-1.4,0.2c-1.8,0-1.8-1.1-1.8-1.6v-3.3h-1.2v-1.2h1.2v-1.2l1.8-0.6v1.8h1.4v1.2
				h-1.4v2.7c0,0.6,0,0.9,0.8,0.9c0.3,0,0.4,0,0.6,0V229.5z"/>
			<path class="st6" d="M233.8,226.8c0,0.4,0,1.6,1.6,1.6c1,0,1.6-0.5,1.6-1.2c0-0.8-0.5-0.9-1.6-1.2c-2.1-0.5-3.2-1.1-3.2-2.6
				c0-1.4,1-2.7,3.4-2.7c0.9,0,2,0.2,2.6,1c0.5,0.6,0.5,1.3,0.5,1.6H237c0-0.3-0.1-1.3-1.4-1.3c-0.9,0-1.4,0.5-1.4,1.2
				c0,0.8,0.6,0.9,1.9,1.3c1.5,0.4,3,0.8,3,2.5c0,1.6-1.3,2.8-3.7,2.8c-3.3,0-3.3-2.1-3.4-3H233.8z"/>
			<path class="st6" d="M243.9,229.5c-0.6,0.2-1.1,0.2-1.4,0.2c-1.8,0-1.8-1.1-1.8-1.6v-3.3h-1.2v-1.2h1.2v-1.2l1.8-0.6v1.8h1.4v1.2
				h-1.4v2.7c0,0.6,0,0.9,0.8,0.9c0.3,0,0.4,0,0.6,0V229.5z"/>
		</g>
		<g id="left-arrow">
			<path class="st27" d="M232.2,292v-18.5c0-17.7-14.5-16.1-35.4-16.1"/>
			<polyline class="st27" points="212.9,244.5 196.8,257.4 212.9,273.5 			"/>
		</g>
		<g id="directions-miles">
			<path class="st6" d="M203.3,309.4c0,1.8-0.4,3.6-2.3,3.6s-2.3-1.8-2.3-3.6c0-1.8,0.4-3.6,2.3-3.6S203.3,307.7,203.3,309.4z
				 M199.4,309.4c0,1,0.1,3,1.6,3c1.5,0,1.6-2,1.6-3s-0.1-3-1.6-3C199.5,306.4,199.4,308.4,199.4,309.4z"/>
			<path class="st6" d="M204.7,312.9V312h0.8v0.9H204.7z"/>
			<path class="st6" d="M207.7,307.1c0.6-0.2,1.1-0.6,1.6-1.1h0.6v6.9h-0.6v-6.2c-0.5,0.4-1,0.8-1.6,1V307.1z"/>
			<path class="st6" d="M216.3,308.6L216.3,308.6c0.4-0.6,0.9-0.9,1.6-0.9c0.8,0,1.4,0.4,1.6,1.1c0.4-0.6,0.9-1.1,1.7-1.1
				c1.6,0,1.8,1.4,1.8,2v3.1h-0.6v-3.2c0-0.9-0.5-1.4-1.3-1.4c-1,0-1.4,0.8-1.4,1.7v2.9H219v-3.2c0-0.9-0.5-1.4-1.3-1.4
				c-1,0-1.4,0.8-1.4,1.7v2.9h-0.6V309c0-0.4,0-0.8-0.1-1.1h0.6L216.3,308.6z"/>
			<path class="st6" d="M225.2,306.4h-0.7v-0.7h0.7V306.4z M225.2,307.9v5h-0.6v-5H225.2z"/>
			<path class="st6" d="M227.4,312.9h-0.6v-7.2h0.6V312.9z"/>
			<path class="st6" d="M229.4,310.5c0,1.1,0.5,2,1.7,2c0.7,0,1.3-0.5,1.4-1.2h0.6c-0.3,1.2-1.1,1.7-2.3,1.7c-1.5,0-2.2-1.3-2.2-2.7
				c0-1.4,0.7-2.7,2.2-2.7c1.7,0,2.3,1.2,2.3,2.8H229.4z M232.6,310c-0.1-1-0.6-1.7-1.6-1.7c-1,0-1.5,0.8-1.6,1.7H232.6z"/>
			<path class="st6" d="M236.2,307.7c0.9,0,1.7,0.3,1.8,1.4h-0.6c-0.1-0.6-0.6-0.8-1.2-0.8c-0.6,0-1.1,0.2-1.1,0.8
				c0,0.7,1,0.7,2.3,1.1c0.5,0.2,0.8,0.6,0.8,1.2c0,1.1-1,1.6-2.1,1.6c-0.9,0-1.9-0.4-1.9-1.5h0.6c0,0.7,0.7,1,1.4,1
				c0.6,0,1.3-0.3,1.3-1c0-0.7-0.8-0.8-1.6-1c-0.8-0.2-1.6-0.4-1.6-1.3C234.4,308.1,235.4,307.7,236.2,307.7z"/>
		</g>
		<g id="turn-right-container">
			<g id="directions-miles-2">
				<path class="st6" d="M203.4,309.2c0,1.8-0.4,3.6-2.3,3.6s-2.3-1.8-2.3-3.6c0-1.8,0.4-3.6,2.3-3.6S203.4,307.4,203.4,309.2z
					 M199.5,309.2c0,1,0.1,3,1.6,3c1.5,0,1.6-2,1.6-3s-0.1-3-1.6-3C199.6,306.2,199.5,308.1,199.5,309.2z"/>
				<path class="st6" d="M204.9,312.6v-0.9h0.8v0.9H204.9z"/>
				<path class="st6" d="M207.6,305.7h3.8v0.6h-3.2l-0.1,2.5l0,0c0.4-0.4,0.9-0.7,1.5-0.7c1.3,0,2.1,1.1,2.1,2.3
					c0,1.3-0.8,2.4-2.2,2.4c-1.2,0-2.2-0.5-2.2-1.8h0.7c0,0.8,0.7,1.2,1.5,1.2c1.1,0,1.6-0.8,1.6-1.8s-0.5-1.7-1.5-1.7
					c-0.7,0-1.3,0.4-1.4,1h-0.7L207.6,305.7z"/>
				<path class="st6" d="M216.4,308.3L216.4,308.3c0.4-0.6,0.9-0.9,1.6-0.9c0.8,0,1.4,0.4,1.6,1.1c0.4-0.6,0.9-1.1,1.7-1.1
					c1.6,0,1.8,1.4,1.8,2v3.1h-0.6v-3.2c0-0.9-0.5-1.4-1.3-1.4c-1,0-1.4,0.8-1.4,1.7v2.9h-0.6v-3.2c0-0.9-0.5-1.4-1.3-1.4
					c-1,0-1.4,0.8-1.4,1.7v2.9h-0.6v-3.9c0-0.4,0-0.8-0.1-1.1h0.6L216.4,308.3z"/>
				<path class="st6" d="M225.3,306.2h-0.7v-0.7h0.7V306.2z M225.3,307.6v5h-0.6v-5H225.3z"/>
				<path class="st6" d="M227.5,312.6h-0.6v-7.2h0.6V312.6z"/>
				<path class="st6" d="M229.5,310.2c0,1.1,0.5,2,1.7,2c0.7,0,1.3-0.5,1.4-1.2h0.6c-0.3,1.2-1.1,1.7-2.3,1.7
					c-1.5,0-2.2-1.3-2.2-2.7c0-1.4,0.7-2.7,2.2-2.7c1.7,0,2.3,1.2,2.3,2.8H229.5z M232.7,309.7c-0.1-1-0.6-1.7-1.6-1.7
					c-1,0-1.5,0.8-1.6,1.7H232.7z"/>
				<path class="st6" d="M236.4,307.5c0.9,0,1.7,0.3,1.8,1.4h-0.6c-0.1-0.6-0.6-0.8-1.2-0.8c-0.6,0-1.1,0.2-1.1,0.8
					c0,0.7,1,0.7,2.3,1.1c0.5,0.2,0.8,0.6,0.8,1.2c0,1.1-1,1.6-2.1,1.6c-0.9,0-1.9-0.4-1.9-1.5h0.6c0,0.7,0.7,1,1.4,1
					c0.6,0,1.3-0.3,1.3-1c0-0.7-0.8-0.8-1.6-1c-0.8-0.2-1.6-0.4-1.6-1.3C234.5,307.8,235.5,307.5,236.4,307.5z"/>
			</g>
			<g id="turn-right">
				<path class="st6" d="M178.6,207.4h-2.8v-0.7h6.3v0.7h-2.7l0,7.9h-0.8L178.6,207.4z"/>
				<path class="st6" d="M186,209.3h0.7v4.7c0,0.5,0,0.9,0.1,1.4H186l0-0.9l0,0c-0.4,0.7-1.1,1.1-1.9,1.1c-2,0-2.1-1.7-2.1-2.4v-3.8
					h0.7v3.9c0,1,0.6,1.7,1.6,1.7c1.2,0,1.7-1,1.7-2.1V209.3z"/>
				<path class="st6" d="M189.3,215.3h-0.7v-4.7c0-0.5,0-0.9-0.1-1.4h0.7l0,0.9h0c0.2-0.6,0.8-1,1.4-1.1c0.2,0,0.5,0,0.7,0v0.7
					c-0.1,0-0.3,0-0.4,0c-1.1,0-1.6,0.8-1.7,1.9V215.3z"/>
				<path class="st6" d="M193.3,215.3h-0.7v-4.7c0-0.5,0-0.9-0.1-1.4h0.7l0,0.9l0,0c0.4-0.7,1.1-1.1,1.9-1.1c2,0,2.1,1.7,2.1,2.4
					v3.8h-0.7v-3.9c0-1-0.6-1.7-1.6-1.7c-1.2,0-1.7,1-1.7,2.1V215.3z"/>
				<path class="st6" d="M203.7,215.3h-0.8v-8.7h2.8c0.8,0,1.4,0,2,0.5c0.6,0.4,0.9,1,0.9,1.8c0,0.9-0.7,1.6-1.7,1.9v0
					c1.1,0.2,1.3,0.9,1.5,1.9c0.2,1.4,0.1,2.1,0.5,2.6H208c-0.2-0.6-0.3-1.2-0.3-1.8c-0.2-2-0.3-2.3-1.9-2.3h-2.1V215.3z
					 M205.3,210.4c1.1,0,2.5-0.1,2.5-1.5c0-1.7-1.6-1.5-2.4-1.5h-1.8v3.1H205.3z"/>
				<path class="st6" d="M211.4,207.5h-0.8v-0.9h0.8V207.5z M211.3,209.3v6h-0.7v-6H211.3z"/>
				<path class="st6" d="M217.5,209.3h0.7c0,0.4-0.1,0.9-0.1,1.4v3.6c0,1.2,0.1,2.5-1.3,3.1c-0.5,0.2-0.8,0.3-1.4,0.3
					c-1.1,0-2.4-0.4-2.4-1.6h0.8c0.1,0.7,0.9,1,1.7,1c0.9,0,1.8-0.7,1.8-1.7v-1.1h0c-0.3,0.7-1.2,1.1-2,1.1c-1.8,0-2.6-1.4-2.6-3
					c0-1.6,0.7-3.1,2.6-3.1c0.9,0,1.5,0.4,2,1.1l0,0L217.5,209.3z M215.5,209.8c-1.3,0-1.9,1.3-1.9,2.4s0.6,2.4,1.9,2.4
					c1.4,0,1.9-1.3,1.9-2.5C217.4,211,216.8,209.8,215.5,209.8z"/>
				<path class="st6" d="M220.7,210.2L220.7,210.2c0.4-0.7,1.1-1.1,1.9-1.1c2,0,2.1,1.7,2.1,2.4v3.8H224v-3.9c0-1-0.6-1.7-1.6-1.7
					c-1.2,0-1.7,1-1.7,2.1v3.5h-0.7v-8.7h0.7V210.2z"/>
				<path class="st6" d="M227.1,209.9h-1.2v-0.7h1.2V208l0.7-0.3v1.6h1.4v0.7h-1.4v4c0,0.6,0.3,0.9,0.8,0.9c0.2,0,0.4,0,0.6-0.1v0.6
					c-0.2,0.1-0.5,0.1-0.7,0.1c-1.5,0-1.4-1-1.4-1.8V209.9z"/>
				<path class="st6" d="M239.1,212.3c0,1.6-0.9,3.2-2.8,3.2s-2.8-1.6-2.8-3.2s0.9-3.2,2.8-3.2S239.1,210.7,239.1,212.3z
					 M236.3,209.8c-1.5,0-2,1.4-2,2.5c0,1.1,0.6,2.5,2,2.5s2-1.4,2-2.5C238.4,211.2,237.8,209.8,236.3,209.8z"/>
				<path class="st6" d="M241.3,215.3h-0.7v-4.7c0-0.5,0-0.9-0.1-1.4h0.7l0,0.9l0,0c0.4-0.7,1.1-1.1,1.9-1.1c2,0,2.1,1.7,2.1,2.4
					v3.8h-0.7v-3.9c0-1-0.6-1.7-1.6-1.7c-1.2,0-1.7,1-1.7,2.1V215.3z"/>
				<path class="st6" d="M247.8,209.9h-1.2v-0.7h1.2V208l0.7-0.3v1.6h1.4v0.7h-1.4v4c0,0.6,0.3,0.9,0.8,0.9c0.2,0,0.4,0,0.6-0.1v0.6
					c-0.2,0.1-0.5,0.1-0.7,0.1c-1.5,0-1.4-1-1.4-1.8V209.9z"/>
				<path class="st6" d="M256.5,212.3c0,1.6-0.9,3.2-2.8,3.2s-2.8-1.6-2.8-3.2s0.9-3.2,2.8-3.2S256.5,210.7,256.5,212.3z
					 M253.7,209.8c-1.5,0-2,1.4-2,2.5c0,1.1,0.6,2.5,2,2.5s2-1.4,2-2.5C255.7,211.2,255.1,209.8,253.7,209.8z"/>
				<path class="st6" d="M196.9,222.2c0.8-0.3,1.5-0.8,2.2-1.3h1.5v8.4h-1.8v-6.5c-0.3,0.3-1,0.7-2,1.1V222.2z"/>
				<path class="st6" d="M202.7,223.1c0-1,0.9-2.3,2.9-2.3c1.7,0,2.8,1,2.8,2.3c0,1-0.8,1.7-1.6,1.8c0.3,0.1,0.9,0.2,1.3,0.9
					c0.3,0.4,0.4,0.8,0.4,1.2c0,1.5-1.4,2.4-3.1,2.4c-1.7,0-2.9-1.1-2.9-2.4c0-0.6,0.3-1.1,0.6-1.5c0.4-0.4,0.8-0.5,1.1-0.6
					C203.9,224.8,202.7,224.4,202.7,223.1z M206.8,226.9c0-0.8-0.6-1.2-1.2-1.2c-0.7,0-1.2,0.5-1.2,1.2c0,0.9,0.6,1.2,1.2,1.2
					C206.1,228.1,206.8,227.8,206.8,226.9z M206.7,223.1c0-0.7-0.6-1-1.1-1c-0.6,0-1.1,0.4-1.1,1c0,0.6,0.4,1.1,1.1,1.1
					C206.2,224.2,206.7,223.8,206.7,223.1z"/>
				<path class="st6" d="M213.2,229.2c-0.6,0.2-1.1,0.2-1.4,0.2c-1.8,0-1.8-1.1-1.8-1.6v-3.3h-1.2v-1.2h1.2v-1.2l1.8-0.6v1.8h1.4
					v1.2h-1.4v2.7c0,0.6,0,0.9,0.8,0.9c0.3,0,0.4,0,0.6,0V229.2z"/>
				<path class="st6" d="M214.4,220.6h1.8v3.4c0.2-0.3,0.6-0.9,1.8-0.9c0.9,0,1.5,0.4,1.8,0.8c0.2,0.3,0.4,0.9,0.4,1.6v3.7h-1.8
					v-3.6c0-0.3,0-1.3-1-1.3c-0.5,0-1.1,0.3-1.1,1.2l0,3.7h-1.8V220.6z"/>
				<path class="st6" d="M226.5,226.5c0,0.4,0,1.6,1.6,1.6c1,0,1.6-0.5,1.6-1.2c0-0.8-0.5-0.9-1.6-1.2c-2.1-0.5-3.2-1.1-3.2-2.6
					c0-1.4,1-2.7,3.4-2.7c0.9,0,2,0.2,2.6,1c0.5,0.6,0.5,1.3,0.5,1.6h-1.8c0-0.3-0.1-1.3-1.4-1.3c-0.9,0-1.4,0.5-1.4,1.2
					c0,0.8,0.6,0.9,1.9,1.3c1.5,0.4,3,0.8,3,2.5c0,1.6-1.3,2.8-3.7,2.8c-3.3,0-3.3-2.1-3.4-3H226.5z"/>
				<path class="st6" d="M236.6,229.2c-0.6,0.2-1.1,0.2-1.4,0.2c-1.8,0-1.8-1.1-1.8-1.6v-3.3h-1.2v-1.2h1.2v-1.2l1.8-0.6v1.8h1.4
					v1.2h-1.4v2.7c0,0.6,0,0.9,0.8,0.9c0.3,0,0.4,0,0.6,0V229.2z"/>
			</g>
			<g id="right-arrow">
				<path class="st27" d="M207.5,291.5V273c0-17.7,14.5-16.1,35.4-16.1"/>
				<polyline class="st27" points="226.8,244 242.9,256.9 226.8,273 				"/>
			</g>
		</g>
	</g>
	<g id="street-view-button">
		<g>
			<path class="st18" d="M257.5,386.5h-85.4c-6.9,0-12.5-5.6-12.5-12.5v-13.6c0-6.9,5.6-12.5,12.5-12.5h85.4
				c6.9,0,12.5,5.6,12.5,12.5V374C270,380.9,264.4,386.5,257.5,386.5z M172.2,348.9c-6.3,0-11.5,5.2-11.5,11.5V374
				c0,6.3,5.2,11.5,11.5,11.5h85.4c6.3,0,11.5-5.2,11.5-11.5v-13.6c0-6.3-5.2-11.5-11.5-11.5H172.2z"/>
		</g>
		<g>
			<path class="st18" d="M182.9,367.6c0,0.3,0,1.4,1.3,1.4c0.8,0,1.4-0.4,1.4-1c0-0.6-0.4-0.8-1.4-1c-1.7-0.4-2.7-0.9-2.7-2.2
				c0-1.2,0.8-2.2,2.9-2.2c0.7,0,1.6,0.2,2.2,0.8c0.4,0.5,0.4,1.1,0.4,1.3h-1.5c0-0.2-0.1-1.1-1.2-1.1c-0.7,0-1.2,0.4-1.2,1
				c0,0.7,0.5,0.8,1.6,1c1.2,0.3,2.5,0.6,2.5,2c0,1.3-1.1,2.3-3.1,2.3c-2.8,0-2.8-1.8-2.8-2.5H182.9z"/>
			<path class="st18" d="M189.8,363.9h-2.1v-1.2h5.9v1.2h-2.1v6h-1.6V363.9z"/>
			<path class="st18" d="M194.2,362.7h2.8c0.8,0,1.6,0,2.2,0.5c0.5,0.4,0.6,0.9,0.6,1.4c0,1.3-1.2,1.7-1.5,1.8
				c1.1,0.1,1.2,0.7,1.3,1.7c0.1,0.8,0.2,1.2,0.2,1.4c0.1,0.3,0.1,0.4,0.2,0.5h-1.7c-0.1-0.4-0.3-2.2-0.4-2.5
				c-0.1-0.4-0.5-0.4-0.8-0.4h-1.4v2.9h-1.6V362.7z M195.7,365.9h1.2c0.2,0,0.5,0,0.8-0.2c0.1-0.1,0.4-0.3,0.4-0.8
				c0-0.5-0.2-0.7-0.4-0.8c-0.2-0.2-0.5-0.2-1-0.2h-1V365.9z"/>
			<path class="st18" d="M201,362.7h4.8v1.2h-3.3v1.7h3.1v1.2h-3.1v1.9h3.4v1.2H201V362.7z"/>
			<path class="st18" d="M207.1,362.7h4.8v1.2h-3.3v1.7h3.1v1.2h-3.1v1.9h3.4v1.2h-4.9V362.7z"/>
			<path class="st18" d="M214.8,363.9h-2.1v-1.2h5.9v1.2h-2.1v6h-1.6V363.9z"/>
			<path class="st18" d="M221.9,362.7l1.9,5.7l1.9-5.7h1.5l-2.7,7.2h-1.7l-2.7-7.2H221.9z"/>
			<path class="st18" d="M227.9,362.7h1.5v7.2h-1.5V362.7z"/>
			<path class="st18" d="M230.9,362.7h4.8v1.2h-3.3v1.7h3.1v1.2h-3.1v1.9h3.4v1.2h-4.9V362.7z"/>
			<path class="st18" d="M238,362.7l1.1,5.4l1.4-5.4h1.7l1.3,5.4l1.2-5.4h1.5l-1.8,7.2h-1.7l-1.3-5.5l-1.4,5.5h-1.8l-1.8-7.2H238z"
				/>
		</g>
	</g>
</g>
<g id="speed-accel">
	<g id="accelerator">
		<circle id="accel-1" class="st1" cx="443" cy="322" r="8"/>
		<ellipse id="accel-2" class="st1" cx="464.5" cy="300.4" rx="7.5" ry="7.5"/>
		<ellipse id="accel-3" class="st1" cx="496.4" cy="286.2" rx="7.2" ry="7.2"/>
		<ellipse id="accel-4" class="st1" cx="529.2" cy="286.7" rx="6.7" ry="6.7"/>
		<ellipse id="accel-5" class="st1" cx="557.3" cy="300.4" rx="6" ry="6"/>
		<ellipse id="accel-6" class="st1" cx="573.6" cy="322" rx="5" ry="5"/>
	</g>
	<g id="speedometer-arc_1_">
		<path class="st28" d="M611.5,475.5c24.8-25.3,40-59.9,40-98c0-77.3-62.7-140-140-140s-140,62.7-140,140
			c0,36.9,14.3,70.5,37.6,95.5"/>
		<line id="speed-ray-7" class="st2" x1="511.5" y1="237.5" x2="511.5" y2="216.5"/>
		<line id="speed-ray-12" class="st2" x1="647" y1="415.5" x2="660.5" y2="420.5"/>
		<line id="speed-ray-10" class="st2" x1="638.7" y1="317.8" x2="651.5" y2="313.5"/>
		<line id="speed-ray-8" class="st2" x1="565.5" y1="247.6" x2="570.5" y2="235.5"/>
		<line id="speed-ray-6" class="st2" x1="455.7" y1="249.1" x2="450.5" y2="237.5"/>
		<line id="speed-ray-4" class="st2" x1="371.5" y1="312.5" x2="384.1" y2="317.8"/>
		<line id="speed-ray-2" class="st2" x1="376.2" y1="413.2" x2="364.5" y2="417.5"/>
		<line id="speed-ray-9" class="st2" x1="611.9" y1="280" x2="627.9" y2="266.4"/>
		<line id="speed-ray-5" class="st2" x1="415" y1="277" x2="399.1" y2="263.3"/>
		<line id="speed-ray-13" class="st2" x1="625.6" y1="458.8" x2="641.8" y2="472.2"/>
		<line id="speed-ray-11" class="st2" x1="651.5" y1="368.5" x2="672.5" y2="368.5"/>
		<line id="speed-ray-3" class="st2" x1="372.5" y1="365.3" x2="351.5" y2="365.3"/>
		<line id="speed-ray-1" class="st2" x1="381" y1="472" x2="397.1" y2="458.6"/>
	</g>
	<g id="speed-numbers">
		<g id="speed-0">
			<path class="st6" d="M413.3,450.9c0,2.5-0.6,5.1-3.2,5.1s-3.2-2.6-3.2-5.1c0-2.5,0.6-5.1,3.2-5.1S413.3,448.4,413.3,450.9z
				 M407.9,450.9c0,1.4,0.2,4.2,2.2,4.2c2.1,0,2.2-2.8,2.2-4.2s-0.2-4.2-2.2-4.2C408,446.7,407.9,449.5,407.9,450.9z"/>
		</g>
		<g id="speed-20">
			<path class="st6" d="M381,368.7v-1c1.3-1.1,5-4.7,5-6.4c0-1.1-0.9-1.7-1.9-1.7c-1.2,0-2,0.8-2,1.9h-1c0-1.7,1.3-2.8,3-2.8
				c1.6,0,2.9,0.8,2.9,2.5c0,2.3-3.4,5.1-4.9,6.6h5v0.8H381z"/>
			<path class="st6" d="M395.2,363.9c0,2.5-0.6,5.1-3.2,5.1s-3.2-2.6-3.2-5.1c0-2.5,0.6-5.1,3.2-5.1S395.2,361.4,395.2,363.9z
				 M389.8,363.9c0,1.4,0.2,4.2,2.2,4.2c2.1,0,2.2-2.8,2.2-4.2s-0.2-4.2-2.2-4.2C389.9,359.7,389.8,362.5,389.8,363.9z"/>
		</g>
		<g id="speed-40">
			<path class="st6" d="M421.2,287.5h-4.6v-0.9l4.3-6.6h1.2v6.7h1.6v0.8h-1.6v2.3h-0.9V287.5z M421.2,281L421.2,281l-3.8,5.8h3.8
				V281z"/>
			<path class="st6" d="M431.2,284.9c0,2.5-0.6,5.1-3.2,5.1s-3.2-2.6-3.2-5.1c0-2.5,0.6-5.1,3.2-5.1S431.2,282.4,431.2,284.9z
				 M425.8,284.9c0,1.4,0.2,4.2,2.2,4.2c2.1,0,2.2-2.8,2.2-4.2s-0.2-4.2-2.2-4.2C425.9,280.7,425.8,283.5,425.8,284.9z"/>
		</g>
		<g id="speed-60">
			<path class="st6" d="M509.3,248.3h-1c0-1-0.9-1.6-1.8-1.6c-2.3,0-2.6,2.5-2.6,4.4h0c0.4-1.1,1.4-1.6,2.5-1.6c1.9,0,3,1.4,3,3.2
				c0,1.8-1.1,3.3-3.1,3.3c-2.7,0-3.5-2.2-3.5-4.6c0-2.5,0.4-5.5,3.5-5.5C508.1,245.8,509.3,246.6,509.3,248.3z M504.1,252.8
				c0,1.2,0.9,2.3,2.2,2.3c1.4,0,2.2-1,2.2-2.4c0-1.3-0.6-2.5-2-2.5C504.9,250.2,504.1,251.4,504.1,252.8z"/>
			<path class="st6" d="M517.2,250.9c0,2.5-0.6,5.1-3.2,5.1s-3.2-2.6-3.2-5.1c0-2.5,0.6-5.1,3.2-5.1S517.2,248.4,517.2,250.9z
				 M511.8,250.9c0,1.4,0.2,4.2,2.2,4.2c2.1,0,2.2-2.8,2.2-4.2s-0.2-4.2-2.2-4.2C511.9,246.7,511.8,249.5,511.8,250.9z"/>
		</g>
		<g id="speed-80">
			<path class="st6" d="M592,286.7c-1.1-0.1-2-1.1-2-2.2c0-1.8,1.6-2.6,3.2-2.6c1.6,0,3.2,0.8,3.2,2.6c0,1.2-0.8,2-1.9,2.2v0
				c1.3,0.3,2.1,1.1,2.1,2.4c0,2-1.7,2.8-3.3,2.8c-1.6,0-3.3-0.9-3.3-2.8C589.9,287.9,590.8,287,592,286.7L592,286.7z M593.2,291.1
				c1.2,0,2.3-0.6,2.3-2s-1.1-2-2.3-2c-1.2,0-2.3,0.6-2.3,2S592,291.1,593.2,291.1z M593.2,286.3c1.3,0,2.2-0.6,2.2-1.8
				c0-1.3-1.2-1.8-2.2-1.8c-1.1,0-2.2,0.5-2.2,1.8C591,285.7,591.9,286.3,593.2,286.3z"/>
			<path class="st6" d="M604.2,286.9c0,2.5-0.6,5.1-3.2,5.1s-3.2-2.6-3.2-5.1c0-2.5,0.6-5.1,3.2-5.1S604.2,284.4,604.2,286.9z
				 M598.8,286.9c0,1.4,0.2,4.2,2.2,4.2c2.1,0,2.2-2.8,2.2-4.2s-0.2-4.2-2.2-4.2C598.9,282.7,598.8,285.5,598.8,286.9z"/>
		</g>
		<g id="speed-100">
			<path class="st6" d="M624.4,365.6c0.8-0.3,1.6-0.9,2.2-1.5h0.9v9.7h-0.9V365c-0.6,0.6-1.4,1.1-2.2,1.5V365.6z"/>
			<path class="st6" d="M636.7,368.9c0,2.5-0.6,5.1-3.2,5.1s-3.2-2.6-3.2-5.1c0-2.5,0.6-5.1,3.2-5.1S636.7,366.4,636.7,368.9z
				 M631.2,368.9c0,1.4,0.2,4.2,2.2,4.2c2.1,0,2.2-2.8,2.2-4.2s-0.2-4.2-2.2-4.2C631.4,364.7,631.2,367.5,631.2,368.9z"/>
			<path class="st6" d="M644.7,368.9c0,2.5-0.6,5.1-3.2,5.1s-3.2-2.6-3.2-5.1c0-2.5,0.6-5.1,3.2-5.1S644.7,366.4,644.7,368.9z
				 M639.3,368.9c0,1.4,0.2,4.2,2.2,4.2c2.1,0,2.2-2.8,2.2-4.2s-0.2-4.2-2.2-4.2C639.4,364.7,639.3,367.5,639.3,368.9z"/>
		</g>
		<g id="speed-120">
			<path class="st6" d="M596.4,450.6c0.8-0.3,1.6-0.9,2.2-1.5h0.9v9.7h-0.9V450c-0.6,0.6-1.4,1.1-2.2,1.5V450.6z"/>
			<path class="st6" d="M602.6,458.7v-1c1.3-1.1,5-4.7,5-6.4c0-1.1-0.9-1.7-1.9-1.7c-1.2,0-2,0.8-2,1.9h-1c0-1.7,1.3-2.8,3-2.8
				c1.6,0,2.9,0.8,2.9,2.5c0,2.3-3.4,5.1-4.9,6.6h5v0.8H602.6z"/>
			<path class="st6" d="M616.8,453.9c0,2.5-0.6,5.1-3.2,5.1s-3.2-2.6-3.2-5.1c0-2.5,0.6-5.1,3.2-5.1S616.8,451.4,616.8,453.9z
				 M611.3,453.9c0,1.4,0.2,4.2,2.2,4.2c2.1,0,2.2-2.8,2.2-4.2s-0.2-4.2-2.2-4.2C611.5,449.7,611.3,452.5,611.3,453.9z"/>
		</g>
	</g>
	<g id="zero-MPH">
		<path class="st6" d="M522,337.2c22.5,0,29.5,15.1,24.7,38c-4.9,22.9-18.4,38-40.9,38c-22.5,0-29.6-15.1-24.7-38
			C485.9,352.3,499.5,337.2,522,337.2z M509.5,395.6c3.8,0,6.4-1.8,10.4-20.4c3.9-18.6,2.1-20.4-1.7-20.4c-3.8,0-6.4,1.8-10.3,20.4
			C503.9,393.8,505.7,395.6,509.5,395.6z"/>
		<path class="st6" d="M475,471.3v-21.7h3.1l8.1,18.9l8.3-18.9h3v21.7h-1.9v-20h-0.1l-8.3,20h-2l-8.3-19.9h-0.1v19.9H475z"/>
		<path class="st6" d="M503.4,471.3v-21.7h5.4c4.2-0.1,8.8,1,8.8,6.1c0,5.2-4.7,6.2-8.8,6.1h-3.5v9.4H503.4z M505.3,460.1h4.7
			c2.9,0,5.5-0.9,5.5-4.3c0-3.4-2.6-4.3-5.5-4.3h-4.7V460.1z"/>
		<path class="st6" d="M521.7,471.3v-21.7h2v9.5h11.8v-9.5h2v21.7h-2V461h-11.8v10.3H521.7z"/>
	</g>
</g>
<g id="speed-rev">
	<path id="motion-path" class="st29" d="M410.5,473.5c0,0-58.5-53-32.3-139c6.3-17,19.1-51,58.7-75.5"/>
	<line id="green-ray-1" class="st29" x1="397.1" y1="458.6" x2="372.5" y2="478.5"/>
	<line id="green-ray-2" class="st29" x1="376.2" y1="413.2" x2="358.5" y2="419.5"/>
	<line id="green-ray-3" class="st29" x1="371" y1="365.3" x2="342" y2="365"/>
	<line id="green-ray-4" class="st29" x1="384" y1="318" x2="366" y2="309"/>
	<line id="green-ray-5" class="st29" x1="414" y1="276" x2="393" y2="257"/>
	<circle id="accel-green-1" class="st18" cx="443" cy="322" r="8"/>
	<circle id="accel-green-2" class="st18" cx="464.5" cy="300.5" r="7.5"/>
	<rect x="395.8" y="445.6" class="st30" width="27.8" height="22.4"/>
	<text id="speed-green-0" transform="matrix(1 0 0 1 405.8416 455.7352)" class="st18 st31 st32">0</text>
	<rect x="373.9" y="358.6" class="st33" width="27.8" height="22.4"/>
	<text id="speed-green-20" transform="matrix(1 0 0 1 380.0037 368.7352)" class="st18 st31 st32">20</text>
	<rect x="410.5" y="279.7" class="st33" width="27.8" height="22.4"/>
	<text id="speed-green-40" transform="matrix(1 0 0 1 416.6161 289.8047)" class="st18 st31 st32">40</text>
	<g id="eight-MPH_4_">
		<path class="st6" d="M495.9,374.8v-0.2c-7.4-1.6-11.2-6.6-9.3-15.6c2.8-12.9,14.9-21.7,35.3-21.7c20.8,0,29.1,8.8,26.3,21.7
			c-1.9,9-7.7,14-16.3,15.6v0.2c9.7,2,12.6,8.9,10.7,17.8c-2.2,10.2-12.1,20.7-36.9,20.7c-24.6,0-30.1-10.5-27.9-20.7
			C479.7,383.7,485.6,376.8,495.9,374.8z M509.4,396.9c3.3,0,6.5-1.8,7.6-7.3c1.2-5.5-1.2-7.3-4.5-7.3c-3.5,0-6.7,1.8-7.9,7.3
			C503.5,395.1,505.9,396.9,509.4,396.9z M515.8,366.9c3.4,0,5.5-1.7,6.6-6.6c1-4.8-0.4-6.6-3.8-6.6s-5.6,1.8-6.6,6.6
			C510.9,365.2,512.4,366.9,515.8,366.9z"/>
	</g>
	<g id="fifteen-MPH">
		<path class="st6" d="M464.9,364c-5.8,3.6-10.7,6.1-17.3,8l4.4-20.6c8.5-2.7,17.3-6.6,23.8-12.6h21.8L482.3,411h-27.4L464.9,364z"
			/>
		<path class="st6" d="M523,338.8h55.7l-3.6,17h-32.7l-3.5,11.9c4.9-3.9,10.2-5.2,15.5-5.2c13.4,0,22,7.8,18.8,22.6
			c-3.9,18.3-19.2,27.8-37,27.8c-19,0-29.3-6.3-27.1-21.8h25.6c-0.4,3,0.3,5.4,3.5,5.4c3.5,0,6.3-2.3,7.9-10.1
			c1.9-8.6,0-9.7-3.5-9.7c-3.4,0-5.1,1.6-6.4,5.8h-23.8L523,338.8z"/>
	</g>
	<g id="twenty-MPH">
		<path class="st6" d="M438.4,392l18.3-10.5c17.1-9.8,23.6-17.1,24.6-21.9c0.9-4.3-1.4-5.9-4.3-5.9c-3.4,0-6.5,2-7.8,8h-25
			c3.8-17.7,17.3-25,37.1-25c24.1,0,29.9,10.9,27.5,22.4c-2.4,11.4-11.2,20.4-35.1,32.7v0.2h28.1l-4,18.8h-63.4L438.4,392z"/>
		<path class="st6" d="M535.2,363.8c-5.8,3.6-10.7,6.1-17.3,8l4.4-20.6c8.5-2.7,17.3-6.6,23.8-12.6h21.8l-15.3,72.2h-27.4
			L535.2,363.8z"/>
	</g>
	<g id="thirty-MPH">
		<path class="st6" d="M467.1,367.1h5.3c5.8,0,9.3-2.5,10.2-6.9c0.7-3.5,0-6.4-4.7-6.4c-4,0-6.6,2-7.8,7.8h-24.2
			c3.8-17.9,18.9-24.2,36.2-24.2c22.6,0,29.7,8.8,27.3,20.2c-1.7,7.7-7.4,14.3-19.4,15.9l-0.1,0.2c13,1.1,15.6,8.3,13.8,16.7
			c-3.3,15.3-17.8,23-36.4,23c-23,0-31.9-7.6-28.4-24.2h24.2c-0.9,5.9,1.8,7.8,5.6,7.8c4.5,0,7.4-2.9,8.3-7c1-4.9-1.6-7.5-8.9-7.5
			h-4.2L467.1,367.1z"/>
		<path class="st6" d="M524.6,339.3h55.7l-3.6,17H544l-3.5,11.9c4.9-3.9,10.2-5.2,15.5-5.2c13.4,0,22,7.8,18.8,22.6
			c-3.9,18.3-19.2,27.8-37,27.8c-19,0-29.3-6.3-27.1-21.8h25.6c-0.4,3,0.3,5.4,3.5,5.4c3.5,0,6.3-2.3,7.9-10.1
			c1.9-8.6,0-9.7-3.5-9.7c-3.4,0-5.1,1.6-6.4,5.8H514L524.6,339.3z"/>
	</g>
	<g id="forty-MPH">
		<path class="st6" d="M469.4,399.5h-33l4.3-20.6l32.9-40h34.8l-9,42.4h8.6l-3.8,18.2h-8.6l-2.5,11.6h-26.2L469.4,399.5z
			 M473.8,381.3l5.3-24.8h-0.2l-18.8,24.8H473.8z"/>
		<path class="st6" d="M524.9,338.9h55.7l-3.6,17h-32.7l-3.5,11.9c4.9-3.9,10.2-5.2,15.5-5.2c13.4,0,22,7.8,18.8,22.6
			c-3.9,18.3-19.2,27.8-37,27.8c-19,0-29.3-6.3-27.1-21.8h25.6c-0.4,3,0.3,5.4,3.5,5.4c3.5,0,6.3-2.3,7.9-10.1
			c1.9-8.6,0-9.7-3.5-9.7c-3.4,0-5.1,1.6-6.4,5.8h-23.8L524.9,338.9z"/>
	</g>
</g>
<g id="big-logo" class="st34">
	<g id="big-logo-reveal" class="st35">
		<g id="mini-letters">
			<rect id="logo-I-2" x="577.8" y="341.2" class="st1" width="10.6" height="52.8"/>
			<polygon id="logo-N" class="st1" points="567.2,341.2 567.2,394 555.4,394.3 535.5,357 535.5,394 525,394 525,341.2 536.7,341.2 
				556.7,379.9 556.8,341.2 			"/>
			<rect id="logo-I-1" x="500.4" y="341.2" class="st1" width="10.5" height="52.8"/>
			<polygon id="logo-M" class="st1" points="489.8,341.2 489.8,394 479.3,394 479.3,354.8 468.1,394 455.2,394 444.1,354.8 
				444.1,394 433.5,394 433.5,341.2 448,341.2 460.8,382.3 473.4,341.2 			"/>
		</g>
		<circle id="logo-circle-outline" class="st36" cx="510.4" cy="365.3" r="107.5"/>
		<circle id="logo-circle-fill" class="st1" cx="510.4" cy="365.3" r="107.5"/>
		<polygon id="top-left-stripe-logo" class="st1" points="411.7,306 253.4,304.5 267.4,323.2 403,323.2 		"/>
		<polygon id="two-left-stripe-logo" class="st1" points="397.1,341.2 286.1,341.2 304.8,360.6 394.3,360.6 		"/>
		<polygon id="three-left-stripe-logo" class="st1" points="395,376.3 323,376.3 340,394 398.6,394 		"/>
		<polygon id="four-left-stripe-logo" class="st1" points="407,412 358,412 375,429 416,429 		"/>
		<polygon id="top-right-stripe-logo" class="st1" points="608,306 772,306 756,324 618,324 		"/>
		<polygon id="two-right-stripe-logo" class="st1" points="623,341 737,341 720,359 626,359 		"/>
		<polygon id="three-right-stripe-logo" class="st1" points="626,376 702,376 685,394 623,394 		"/>
		<polygon id="four-right-stripe-logo" class="st1" points="613,411 666,411 650,429 604,429 		"/>
	</g>
</g>
<g id="big-gas-tank-container" class="st34">
	<g id="big-gas-tank_1_" class="st35">
		<g id="gas-tank_1_">
			<g id="gas-levels_1_">
				<path id="gas-level-1_1_" class="st19" d="M401.2,408.8h217.1c0,0-23.5,69.8-107.3,72.3S401.2,408.8,401.2,408.8z"/>
				<path id="gas-level-2_1_" class="st20" d="M392.9,349h233.6c0,0,3.8,39.9-8.9,61.1H401.8C401.8,410.1,389.1,393.8,392.9,349z"/>
				<path id="gas-level-3_1_" class="st21" d="M411.7,302.2h196c0,0,20.1,31.8,17.5,47h-231C394.2,349.2,403.8,308.5,411.7,302.2z"
					/>
			</g>
			<ellipse class="st37" cx="509.7" cy="365.7" rx="116.8" ry="116.7"/>
			<rect x="402.1" y="330.2" class="st30" width="217.9" height="156.7"/>
			<text id="big-mileage-left" transform="matrix(1.0007 0 0 1 442.4473 363.2075)"><tspan x="0" y="0" class="st6 st38 st39">261m</tspan><tspan x="41.5" y="35.5" class="st6 st40 st41"> left</tspan></text>
			<rect x="402.4" y="330" class="st30" width="217.9" height="156.7"/>
			<text id="_x0D_full-tank-number" transform="matrix(1.0007 0 0 1 457.9936 362.9964)"><tspan x="0" y="0" class="st6 st38 st39">77%</tspan><tspan x="26.2" y="35.5" class="st6 st40 st41"> full</tspan></text>
		</g>
	</g>
</g>
</svg>
